<svg xmlns="http://www.w3.org/2000/svg" version="1.1" xmlns:xlink="http://www.w3.org/1999/xlink" xmlns:svgjs="http://svgjs.dev/svgjs" width="1500" height="878" viewBox="0 0 1500 878"><g transform="matrix(1,0,0,1,-0.9090909090909918,-0.6880755051058713)"><svg viewBox="0 0 396 232" data-background-color="#ffa96a" preserveAspectRatio="xMidYMid meet" height="878" width="1500" xmlns="http://www.w3.org/2000/svg" xmlns:xlink="http://www.w3.org/1999/xlink"><g id="tight-bounds" transform="matrix(1,0,0,1,0.2400000000000091,0.1818149398457365)"><svg viewBox="0 0 395.52 231.63637012030853" height="231.63637012030853" width="395.52"><g><svg viewBox="0 0 395.52 231.63637012030853" height="231.63637012030853" width="395.52"><g transform="matrix(1,0,0,1,0,166.07960573855848)"><svg viewBox="0 0 395.52 65.55676438175004" height="65.55676438175004" width="395.52"><g id="textblocktransform"><svg viewBox="0 0 395.52 65.55676438175004" height="65.55676438175004" width="395.52" id="textblock"><g><svg viewBox="0 0 395.52 65.55676438175004" height="65.55676438175004" width="395.52"><g transform="matrix(1,0,0,1,0,0)"><svg width="395.52" viewBox="4 -37 226.83 37.6" height="65.55676438175004" data-palette-color="#000000"><path d="M15.7 0.6L15.7 0.6Q13.45 0.6 11.48-0.23 9.5-1.05 8.2-2.15L8.2-2.15 8.2 0 4 0 4-37 8.5-37 8.5-23.3Q9.5-24.45 11.43-25.53 13.35-26.6 16-26.6L16-26.6Q19-26.6 21.63-25.03 24.25-23.45 25.85-20.48 27.45-17.5 27.45-13.25L27.45-13.25Q27.45-10.15 26.45-7.6 25.45-5.05 23.78-3.23 22.1-1.4 20-0.4 17.9 0.6 15.7 0.6ZM14.5-3.4L14.5-3.4Q16.95-3.4 18.82-4.6 20.7-5.8 21.78-8 22.85-10.2 22.85-13.1L22.85-13.1Q22.85-16.1 21.78-18.25 20.7-20.4 18.93-21.55 17.15-22.7 15-22.7L15-22.7Q12.85-22.7 11.13-21.63 9.4-20.55 8.5-19.3L8.5-19.3 8.5-5.4Q9.65-4.5 11.2-3.95 12.75-3.4 14.5-3.4ZM44.65 0.6L44.65 0.6Q40.95 0.6 38-1.13 35.05-2.85 33.37-5.93 31.7-9 31.7-13L31.7-13Q31.7-17.2 33.4-20.25 35.1-23.3 38.05-24.95 41-26.6 44.65-26.6L44.65-26.6Q48.3-26.6 51.22-24.95 54.15-23.3 55.87-20.28 57.6-17.25 57.6-13.1L57.6-13.1Q57.6-8.95 55.9-5.88 54.2-2.8 51.27-1.1 48.35 0.6 44.65 0.6ZM44.65-3.4L44.65-3.4Q48.6-3.4 50.8-6.08 53-8.75 53-13L53-13Q53-15.6 51.9-17.78 50.8-19.95 48.92-21.28 47.05-22.6 44.65-22.6L44.65-22.6Q40.7-22.6 38.5-20 36.3-17.4 36.3-13.1L36.3-13.1Q36.3-10.5 37.4-8.28 38.5-6.05 40.37-4.73 42.25-3.4 44.65-3.4ZM74.55 0.6L74.55 0.6Q70.84 0.6 67.9-1.13 64.95-2.85 63.27-5.93 61.6-9 61.6-13L61.6-13Q61.6-17.2 63.3-20.25 65-23.3 67.95-24.95 70.9-26.6 74.55-26.6L74.55-26.6Q78.2-26.6 81.12-24.95 84.05-23.3 85.77-20.28 87.5-17.25 87.5-13.1L87.5-13.1Q87.5-8.95 85.8-5.88 84.09-2.8 81.17-1.1 78.25 0.6 74.55 0.6ZM74.55-3.4L74.55-3.4Q78.5-3.4 80.7-6.08 82.9-8.75 82.9-13L82.9-13Q82.9-15.6 81.8-17.78 80.7-19.95 78.82-21.28 76.95-22.6 74.55-22.6L74.55-22.6Q70.59-22.6 68.4-20 66.2-17.4 66.2-13.1L66.2-13.1Q66.2-10.5 67.3-8.28 68.4-6.05 70.27-4.73 72.15-3.4 74.55-3.4ZM114.54-2.5L111.44 0.5 97.99-13.35 97.99 0 93.49 0 93.49-37 97.99-37 97.99-15.85 109.74-26.5 112.34-23.65 102.29-14.75 114.54-2.5ZM126.04 0.6L126.04 0.6Q123.09 0.6 120.72-0.15 118.34-0.9 116.79-2.1L116.79-2.1 118.69-5.85Q119.99-4.75 121.97-4.03 123.94-3.3 126.19-3.3L126.19-3.3Q128.99-3.3 130.42-4.23 131.84-5.15 131.84-6.6L131.84-6.6Q131.84-7.65 131.31-8.45 130.79-9.25 129.39-10.03 127.99-10.8 125.34-11.7L125.34-11.7Q121.69-12.95 119.87-14.68 118.04-16.4 118.04-19.45L118.04-19.45Q118.04-22.45 120.67-24.53 123.29-26.6 127.94-26.6L127.94-26.6Q130.44-26.6 132.39-26.08 134.34-25.55 135.89-24.75L135.89-24.75 134.64-21.05Q133.29-21.85 131.56-22.35 129.84-22.85 127.74-22.85L127.74-22.85Q125.14-22.85 123.79-21.8 122.44-20.75 122.44-19.5L122.44-19.5Q122.44-18.3 123.49-17.45 124.54-16.6 127.59-15.6L127.59-15.6Q132.54-13.95 134.49-11.95 136.44-9.95 136.44-6.95L136.44-6.95Q136.44-3.45 133.62-1.43 130.79 0.6 126.04 0.6ZM151.54 0.6L151.54 0.6Q147.79 0.6 145.61-1.88 143.44-4.35 143.44-8.95L143.44-8.95 143.44-21.15 138.94-21.15 138.94-25.05 143.54-25.05 144.49-33.25 147.94-33.25 147.94-25.05 155.14-25.05 155.14-21.15 147.94-21.15 147.94-8.6Q147.94-5.7 149.16-4.55 150.39-3.4 152.09-3.4L152.09-3.4Q153.34-3.4 154.46-3.8 155.59-4.2 156.54-4.75L156.54-4.75 157.79-1.15Q156.79-0.55 155.09 0.03 153.39 0.6 151.54 0.6ZM172.23 0.6L172.23 0.6Q168.53 0.6 165.59-1.13 162.63-2.85 160.96-5.93 159.28-9 159.28-13L159.28-13Q159.28-17.2 160.98-20.25 162.69-23.3 165.63-24.95 168.59-26.6 172.23-26.6L172.23-26.6Q175.88-26.6 178.81-24.95 181.74-23.3 183.46-20.28 185.19-17.25 185.19-13.1L185.19-13.1Q185.19-8.95 183.49-5.88 181.78-2.8 178.86-1.1 175.94 0.6 172.23 0.6ZM172.23-3.4L172.23-3.4Q176.19-3.4 178.38-6.08 180.59-8.75 180.59-13L180.59-13Q180.59-15.6 179.49-17.78 178.38-19.95 176.51-21.28 174.63-22.6 172.23-22.6L172.23-22.6Q168.28-22.6 166.09-20 163.88-17.4 163.88-13.1L163.88-13.1Q163.88-10.5 164.98-8.28 166.09-6.05 167.96-4.73 169.84-3.4 172.23-3.4ZM195.68 0L191.18 0 191.18-26 195.53-26 195.53-20.35Q196.18-22 197.28-23.43 198.38-24.85 200.03-25.73 201.68-26.6 203.88-26.6L203.88-26.6Q204.63-26.6 205.38-26.53 206.13-26.45 206.63-26.3L206.63-26.3 205.28-21.65Q204.33-22.05 203.03-22.05L203.03-22.05Q201.18-22.05 199.51-21 197.83-19.95 196.76-17.75 195.68-15.55 195.68-12.15L195.68-12.15 195.68 0ZM220.03 0.6L220.03 0.6Q214.43 0.6 211.16-2.98 207.88-6.55 207.88-13L207.88-13Q207.88-16.9 209.35-19.98 210.83-23.05 213.48-24.83 216.13-26.6 219.63-26.6L219.63-26.6Q223.38-26.6 225.85-24.98 228.33-23.35 229.58-20.6 230.83-17.85 230.83-14.55L230.83-14.55Q230.83-12.8 230.68-11.15L230.68-11.15 212.48-11.15Q212.93-7.5 215.03-5.45 217.13-3.4 220.58-3.4L220.58-3.4Q222.83-3.4 224.63-3.88 226.43-4.35 228.08-5.1L228.08-5.1 229.13-1.25Q227.33-0.45 225.08 0.08 222.83 0.6 220.03 0.6ZM212.43-14.8L212.43-14.8 226.68-14.8Q226.68-18.6 224.78-20.65 222.88-22.7 219.53-22.7L219.53-22.7Q216.63-22.7 214.73-20.68 212.83-18.65 212.43-14.8Z" opacity="1" transform="matrix(1,0,0,1,0,0)" fill="#000000" class="wordmark-text-0" data-fill-palette-color="primary" id="text-0"></path></svg></g></svg></g></svg></g></svg></g><g transform="matrix(1,0,0,1,122.45838648481376,0)"><svg viewBox="0 0 150.60322703037247 150.60322703037247" height="150.60322703037247" width="150.60322703037247"><g><svg></svg></g><g id="icon-0"><svg viewBox="0 0 150.60322703037247 150.60322703037247" height="150.60322703037247" width="150.60322703037247"><g><rect width="136.93737865169052" height="136.93737865169052" x="6.832924189340972" y="6.832924189340972" fill="#000000" data-fill-palette-color="accent"></rect><rect width="136.93737865169052" height="136.93737865169052" x="-8.881784197001252e-16" y="13.665848378681943" fill="#000000" opacity="0.5" data-fill-palette-color="accent"></rect></g><g transform="matrix(1,0,0,1,19.52264054097421,22.80504557222936)"><svg viewBox="0 0 111.55794594842405 104.99313588591374" height="104.99313588591374" width="111.55794594842405"><g><svg xmlns="http://www.w3.org/2000/svg" data-name="Layer 1" viewBox="6 8 51.001252227982754 48" x="0" y="0" height="104.99313588591374" width="111.55794594842405" class="icon-cg-0" data-fill-palette-color="quaternary" id="cg-0"><path d="M56 50.78H54V14.26a1 1 0 0 0-1-1H43a1 1 0 0 0-1 1v7.31H32V9a1 1 0 0 0-1-1H21a1 1 0 0 0-1 1v8.35H10a1 1 0 0 0-1 1V50.78H7a1 1 0 0 0-1 1V55a1 1 0 0 0 1 1H56a1 1 0 0 0 1-1V51.83A1 1 0 0 0 56 50.78ZM44 15.3h8V50.78H44ZM33 23.65h8V50.78H33ZM22 10.09h8V50.78H22ZM11 19.48h8v31.3H11ZM55 53.91H8v-1H55Z" fill="#ffa96a" data-fill-palette-color="quaternary"></path><path d="M17 22.61H13a1 1 0 0 0-1 1V32a1 1 0 0 0 1 1h4a1 1 0 0 0 1-1V23.65A1 1 0 0 0 17 22.61ZM16 31H14V24.7h2Z" fill="#ffa96a" data-fill-palette-color="quaternary"></path><path d="M50 18.43H46a1 1 0 0 0-1 1.05v9.39a1 1 0 0 0 1 1h4a1 1 0 0 0 1-1V19.48A1 1 0 0 0 50 18.43Zm-1 9.4H47V20.52h2Z" fill="#ffa96a" data-fill-palette-color="quaternary"></path><path d="M17 36.17H13a1 1 0 0 0 0 2.09h4a1 1 0 0 0 0-2.09Z" fill="#ffa96a" data-fill-palette-color="quaternary"></path><path d="M17 40.35H13a1 1 0 0 0 0 2.08h4a1 1 0 0 0 0-2.08Z" fill="#ffa96a" data-fill-palette-color="quaternary"></path><path d="M17 44.52H13a1 1 0 0 0 0 2.09h4a1 1 0 0 0 0-2.09Z" fill="#ffa96a" data-fill-palette-color="quaternary"></path><path d="M39 27.83H35a1 1 0 0 0 0 2.08h4a1 1 0 0 0 0-2.08Z" fill="#ffa96a" data-fill-palette-color="quaternary"></path><path d="M39 32H35a1 1 0 0 0 0 2.09h4A1 1 0 0 0 39 32Z" fill="#ffa96a" data-fill-palette-color="quaternary"></path><path d="M39 36.17H35a1 1 0 0 0 0 2.09h4a1 1 0 0 0 0-2.09Z" fill="#ffa96a" data-fill-palette-color="quaternary"></path><path d="M26 40.35a3.13 3.13 0 1 0 3 3.13A3.07 3.07 0 0 0 26 40.35Zm0 4.17a1 1 0 1 1 1-1A1 1 0 0 1 26 44.52Z" fill="#ffa96a" data-fill-palette-color="quaternary"></path><path d="M37 40.35a3.13 3.13 0 1 0 3 3.13A3.07 3.07 0 0 0 37 40.35Zm0 4.17a1 1 0 1 1 1-1A1 1 0 0 1 37 44.52Z" fill="#ffa96a" data-fill-palette-color="quaternary"></path><path d="M28 15.3H24a1 1 0 0 0 0 2.09h4a1 1 0 0 0 0-2.09Z" fill="#ffa96a" data-fill-palette-color="quaternary"></path><path d="M28 20.52H24a1 1 0 0 0 0 2.09h4a1 1 0 0 0 0-2.09Z" fill="#ffa96a" data-fill-palette-color="quaternary"></path><path d="M28 25.74H24a1 1 0 0 0 0 2.09h4a1 1 0 0 0 0-2.09Z" fill="#ffa96a" data-fill-palette-color="quaternary"></path><path d="M50 34.09H46a1 1 0 0 0 0 2.08h4a1 1 0 0 0 0-2.08Z" fill="#ffa96a" data-fill-palette-color="quaternary"></path><path d="M50 39.3H46a1 1 0 0 0 0 2.09h4a1 1 0 0 0 0-2.09Z" fill="#ffa96a" data-fill-palette-color="quaternary"></path><path d="M50 44.52H46a1 1 0 0 0 0 2.09h4a1 1 0 0 0 0-2.09Z" fill="#ffa96a" data-fill-palette-color="quaternary"></path></svg></g></svg></g></svg></g></svg></g><g></g></svg></g><defs></defs></svg><rect width="395.52" height="231.63637012030853" fill="none" stroke="none" visibility="hidden"></rect></g></svg></g></svg>